HIERARCHY
ROOT Hips
{
 OFFSET 0.000000 0.000000 0.000000
 CHANNELS 6 Xposition Yposition Zposition Yrotation Xrotation Zrotation
 JOINT Chest
 {
  OFFSET 0.000000 9.585900 0.002600
  CHANNELS 3 Yrotation Xrotation Zrotation
  JOINT Chest2
  {
   OFFSET 0.000000 9.601200 -0.005300
   CHANNELS 3 Yrotation Xrotation Zrotation
   JOINT Chest3
   {
    OFFSET 0.000000 9.561800 0.000000
    CHANNELS 3 Yrotation Xrotation Zrotation
    JOINT Chest4
    {
     OFFSET 0.000000 9.552100 0.000000
     CHANNELS 3 Yrotation Xrotation Zrotation
     JOINT Neck
     {
      OFFSET 0.000000 14.453000 0.000000
      CHANNELS 3 Yrotation Xrotation Zrotation
      JOINT Head
      {
       OFFSET 0.000000 8.936500 -0.011300
       CHANNELS 3 Yrotation Xrotation Zrotation
       End Site
       {
        OFFSET 0.000000 17.073600 -0.006000
       }
      }
     }
     JOINT RightCollar
     {
      OFFSET -2.921100 9.558500 0.000000
      CHANNELS 3 Yrotation Xrotation Zrotation
      JOINT RightShoulder
      {
       OFFSET -13.519700 0.000000 0.000000
       CHANNELS 3 Yrotation Xrotation Zrotation
       JOINT RightElbow
       {
        OFFSET 0.000000 -29.696600 0.000000
        CHANNELS 3 Yrotation Xrotation Zrotation
        JOINT RightWrist
        {
         OFFSET 0.000000 -24.004700 0.000000
         CHANNELS 3 Yrotation Xrotation Zrotation
         End Site
         {
          OFFSET 0.000000 -17.728500 0.000000
         }
        }
       }
      }
     }
     JOINT LeftCollar
     {
      OFFSET 2.921100 9.558500 0.000000
      CHANNELS 3 Yrotation Xrotation Zrotation
      JOINT LeftShoulder
      {
       OFFSET 13.519700 0.000000 0.000000
       CHANNELS 3 Yrotation Xrotation Zrotation
       JOINT LeftElbow
       {
        OFFSET 0.000000 -29.696600 0.000000
        CHANNELS 3 Yrotation Xrotation Zrotation
        JOINT LeftWrist
        {
         OFFSET 0.000000 -24.004700 0.000000
         CHANNELS 3 Yrotation Xrotation Zrotation
         End Site
         {
          OFFSET 0.000000 -17.728500 0.000000
         }
        }
       }
      }
     }
    }
   }
  }
 }
 JOINT RightHip
 {
  OFFSET -7.771700 -0.012900 -0.001300
  CHANNELS 3 Yrotation Xrotation Zrotation
  JOINT RightKnee
  {
   OFFSET 0.000000 -40.869800 0.001200
   CHANNELS 3 Yrotation Xrotation Zrotation
   JOINT RightAnkle
   {
    OFFSET 0.000000 -39.717900 0.002100
    CHANNELS 3 Yrotation Xrotation Zrotation
    JOINT RightToe
    {
     OFFSET 0.000000 -4.965400 11.033500
     CHANNELS 3 Yrotation Xrotation Zrotation
     End Site
     {
      OFFSET 0.000000 -1.423100 5.872300
     }
    }
   }
  }
 }
 JOINT LeftHip
 {
  OFFSET 7.771700 -0.012900 -0.001300
  CHANNELS 3 Yrotation Xrotation Zrotation
  JOINT LeftKnee
  {
   OFFSET 0.000000 -40.869800 0.001200
   CHANNELS 3 Yrotation Xrotation Zrotation
   JOINT LeftAnkle
   {
    OFFSET 0.000000 -39.717900 0.002100
    CHANNELS 3 Yrotation Xrotation Zrotation
    JOINT LeftToe
    {
     OFFSET 0.000000 -4.965400 11.033500
     CHANNELS 3 Yrotation Xrotation Zrotation
     End Site
     {
      OFFSET 0.000000 -1.423100 5.872300
     }
    }
   }
  }
 }
}
MOTION
Frames: 12
Frame Time: 0.008333
-59.155359 48.103058 16.777031 177.796614 -36.200919 2.985750 0.603901 13.729820 1.181941 0.347535 7.872037 1.166188 0.425917 9.846899 1.468004 0.336490 7.871891 1.168198 0.179971 26.116628 -2.309434 0.831001 12.738035 -4.162742 13.852665 0.167897 -9.084655 18.701391 -30.463650 -13.601079 -121.420474 -49.087540 155.665366 5.900307 -10.427151 -59.455097 -7.538076 -3.572779 3.892377 -3.032254 -29.860565 -0.511287 129.578798 -50.639150 -169.163598 -0.246402 -1.852180 60.689592 24.851216 -45.019910 -32.847302 -109.730460 66.204884 -101.267123 1.335820 -3.995467 2.849308 0.050681 -0.914115 0.104269 -2.191100 -48.696284 4.961449 87.836659 82.726789 84.231107 -6.232652 -7.039973 -1.337227 0.420588 0.758906 0.222772
-59.159359 48.106077 16.773709 177.841223 -36.191119 2.958939 0.560145 13.727627 1.172204 0.336195 7.871448 1.167905 0.376882 9.855374 1.471512 0.314698 7.871827 1.172689 0.210210 26.102827 -2.313405 0.782383 12.716888 -4.067360 13.827436 0.201014 -9.084386 18.699262 -30.477923 -13.615967 -121.537828 -49.126541 155.735073 5.915965 -10.470229 -59.413628 -7.567334 -3.566975 3.873989 -3.078723 -29.863580 -0.486358 129.807591 -50.667166 -169.276305 -0.290226 -1.836228 60.608947 24.859155 -45.016935 -32.833668 -109.717980 66.177991 -101.286520 1.358883 -3.991080 2.862023 0.009812 -0.916907 0.123059 -2.234584 -48.707260 4.971346 87.801398 82.720579 84.186828 -6.248749 -7.025748 -1.337443 0.433923 0.750883 0.222520
-59.159763 48.107852 16.771787 177.866142 -36.171112 2.920347 0.505902 13.741193 1.156050 0.339875 7.854646 1.188107 0.345896 9.856182 1.479015 0.293194 7.872376 1.178087 0.243288 26.089331 -2.321811 0.749790 12.705663 -3.978906 13.800100 0.232539 -9.083931 18.698386 -30.492100 -13.634148 -121.663726 -49.174535 155.806452 5.929012 -10.510295 -59.342251 -7.533183 -3.573416 3.847890 -3.192737 -29.864140 -0.452066 130.215890 -50.726563 -169.569821 -0.246180 -1.829348 60.581081 24.857373 -45.036358 -32.802242 -109.697931 66.159850 -101.287273 1.374082 -3.972086 2.886382 -0.017737 -0.929500 0.110877 -2.298960 -48.729727 5.020081 87.804303 82.724191 84.189503 -6.257577 -7.014029 -1.358261 0.454082 0.741586 0.232841
-59.160990 48.109315 16.770042 177.878808 -36.150119 2.892064 0.476535 13.735990 1.155503 0.284279 7.868910 1.186579 0.353522 9.844410 1.488742 0.271698 7.873189 1.184022 0.187649 26.088570 -2.257096 0.786204 12.690823 -4.016852 13.774602 0.262458 -9.084621 18.695213 -30.503975 -13.652365 -121.803256 -49.232749 155.883418 5.940327 -10.548523 -59.248511 -7.494491 -3.580351 3.820341 -3.221051 -29.869203 -0.434685 130.475928 -50.766798 -169.773121 -0.255465 -1.821587 60.529641 24.848384 -45.061384 -32.783829 -109.687848 66.153605 -101.287028 1.385313 -3.959205 2.887428 -0.029839 -0.941385 0.096657 -2.367977 -48.752465 5.063547 87.846709 82.718171 84.225888 -6.249491 -7.006660 -1.378212 0.445285 0.734299 0.230043
-59.159034 48.110793 16.767714 177.887681 -36.134198 2.845324 0.454025 13.735848 1.175856 0.300073 7.856856 1.200234 0.290025 9.856829 1.494483 0.250628 7.873681 1.190559 0.208056 26.083372 -2.254395 0.800037 12.685037 -4.024605 13.751065 0.290126 -9.084379 18.683393 -30.511779 -13.670962 -121.956573 -49.298184 155.972085 5.953854 -10.581539 -59.149409 -7.602681 -3.566600 3.803954 -3.217840 -29.883406 -0.381840 130.879631 -50.829251 -170.024707 -0.262629 -1.815764 60.477080 24.851434 -45.077794 -32.729391 -109.676977 66.120967 -101.263451 1.350816 -3.954701 2.890256 0.004659 -0.940440 0.088112 -2.438665 -48.769009 5.121609 87.865658 82.713272 84.251987 -6.223718 -7.004697 -1.393110 0.436245 0.732061 0.220453
-59.159912 48.112360 16.764929 177.895692 -36.121836 2.814703 0.426431 13.740196 1.179339 0.279682 7.857225 1.206487 0.264652 9.856165 1.504368 0.230126 7.873513 1.197925 0.198179 26.085059 -2.225350 0.832239 12.674824 -4.076671 13.728348 0.315655 -9.082183 18.661830 -30.514551 -13.690653 -122.122668 -49.367590 156.076181 5.972890 -10.605871 -59.057156 -7.647070 -3.566805 3.780529 -3.260983 -29.888477 -0.327690 131.256739 -50.893100 -170.264120 -0.270180 -1.815342 60.413571 24.867793 -45.083215 -32.693619 -109.657042 66.096707 -101.247237 1.344877 -3.948013 2.901790 0.002647 -0.939095 0.084991 -2.487042 -48.781676 5.152892 87.868628 82.709436 84.267074 -6.212417 -7.001369 -1.414302 0.423616 0.727794 0.215355
-59.158186 48.113215 16.762572 177.909145 -36.106516 2.764433 0.402769 13.737766 1.204152 0.257733 7.859701 1.211723 0.232382 9.857059 1.512236 0.210138 7.872920 1.205431 0.191330 26.085387 -2.199117 0.853986 12.674054 -4.073693 13.706640 0.337782 -9.076946 18.635638 -30.511646 -13.713304 -122.302933 -49.438752 156.195761 5.995307 -10.624539 -58.973724 -7.657015 -3.574389 3.755519 -3.275038 -29.889193 -0.289745 131.548364 -50.953135 -170.464386 -0.278857 -1.821924 60.328484 24.909611 -45.085096 -32.630116 -109.624468 66.059044 -101.218667 1.313227 -3.925445 2.945350 0.002687 -0.938892 0.082829 -2.550709 -48.797153 5.212636 87.869960 82.713319 84.291916 -6.241246 -7.008920 -1.439827 0.460361 0.731959 0.219573
-59.156553 48.113190 16.761092 177.907061 -36.083424 2.723735 0.378948 13.734327 1.221200 0.181105 7.876835 1.208360 0.265059 9.839218 1.523549 0.190455 7.872019 1.212600 0.200700 26.079586 -2.190802 0.848996 12.667639 -3.980910 13.688611 0.357724 -9.068604 18.606828 -30.505627 -13.739743 -122.493573 -49.510358 156.323320 6.016555 -10.639173 -58.893317 -7.660268 -3.582940 3.734110 -3.267617 -29.889207 -0.260211 131.782461 -51.010958 -170.623883 -0.288841 -1.834758 60.221195 24.925918 -45.111590 -32.579300 -109.606845 66.038501 -101.203531 1.301825 -3.908791 2.947551 0.002980 -0.944925 0.085005 -2.621350 -48.818975 5.270068 87.898036 82.698764 84.335797 -6.232016 -7.019546 -1.465890 0.462287 0.738975 0.215661
-59.154946 48.112948 16.759686 177.909047 -36.058854 2.681691 0.342010 13.735233 1.231931 0.199834 7.861057 1.223775 0.211591 9.845545 1.532877 0.194470 7.868278 1.211713 0.190638 26.071366 -2.172986 0.855803 12.649369 -3.949169 13.651046 0.380478 -9.049286 18.574395 -30.500463 -13.766704 -122.690899 -49.581048 156.452830 6.031458 -10.651204 -58.811366 -7.681837 -3.586012 3.722536 -3.248403 -29.888590 -0.236608 131.964043 -51.065104 -170.747274 -0.295503 -1.853061 60.101613 24.936486 -45.140178 -32.529997 -109.600758 66.009576 -101.185959 1.267312 -3.907483 2.925628 0.033924 -0.940392 0.105083 -2.700119 -48.839761 5.327296 87.917237 82.674987 84.355270 -6.203730 -7.036839 -1.453768 0.439782 0.755128 0.181326
-59.148979 48.113193 16.757414 177.902982 -36.039399 2.620207 0.336770 13.732249 1.281466 0.197163 7.853900 1.230318 0.161694 9.850321 1.543194 0.245565 7.860111 1.195384 0.142781 26.062610 -2.132502 0.882482 12.642952 -3.988624 13.567278 0.404810 -9.008700 18.543481 -30.495522 -13.789788 -122.899489 -49.651651 156.585464 6.038818 -10.662825 -58.731018 -7.703555 -3.585148 3.721203 -3.279034 -29.884786 -0.208883 132.109576 -51.118278 -170.843453 -0.295885 -1.879627 59.979971 24.927465 -45.173878 -32.445701 -109.594954 65.979243 -101.166738 1.244083 -3.901819 2.905556 0.051759 -0.939668 0.134200 -2.799145 -48.856177 5.413275 87.953976 82.656486 84.422962 -6.191914 -7.056485 -1.495719 0.457132 0.767291 0.178985
-59.144682 48.113448 16.755271 177.902757 -36.017895 2.567567 0.342369 13.716184 1.330241 0.151043 7.867060 1.228078 0.137874 9.846191 1.551520 0.155899 7.862058 1.228636 0.199031 26.044084 -2.170093 0.880281 12.608994 -3.965075 13.623269 0.438547 -9.037365 18.516873 -30.490712 -13.807450 -123.118123 -49.720395 156.721030 6.045703 -10.671138 -58.658597 -7.648933 -3.593865 3.665907 -3.241190 -29.885148 -0.194195 132.223957 -51.170523 -170.914518 -0.297775 -1.917476 59.861194 24.925098 -45.203889 -32.378925 -109.582138 65.957775 -101.152726 1.234362 -3.892127 2.907713 0.053998 -0.943457 0.131539 -2.895478 -48.876958 5.480107 87.996319 82.633783 84.500009 -6.191245 -7.070461 -1.545794 0.477750 0.773488 0.187636
-59.146970 48.112858 16.754772 177.900889 -35.982739 2.557747 0.311946 13.703438 1.315315 0.133197 7.862983 1.236425 0.154866 9.837289 1.558212 0.078330 7.868748 1.256904 0.217335 26.025603 -2.181818 0.872162 12.567060 -3.944204 13.634634 0.468726 -9.044761 18.489919 -30.488391 -13.820186 -123.340152 -49.784433 156.858692 6.053473 -10.675394 -58.593239 -7.642774 -3.598063 3.633310 -3.211027 -29.887307 -0.181981 132.312917 -51.215221 -170.966815 -0.306362 -1.965492 59.746963 24.966785 -45.228369 -32.374674 -109.551105 65.936811 -101.125457 1.223136 -3.888008 2.890024 0.065076 -0.937371 0.128040 -2.993866 -48.913410 5.499515 88.096009 82.575475 84.580158 -6.118185 -7.064746 -1.552883 0.408343 0.768694 0.158816
